<?xml version="1.0" encoding="UTF-8"?>
<svg viewBox="0 0 33 42" xmlns="http://www.w3.org/2000/svg" xmlns:xlink="http://www.w3.org/1999/xlink">
 <defs>
  <filter id="e" x="-.23939" y="-.16079" width="1.4788" height="1.3216">
   <feGaussianBlur stdDeviation=".2673"/>
  </filter>
  <filter id="i" x="-.09287" y="-.171" width="1.1857" height="1.342">
   <feGaussianBlur stdDeviation=".2673"/>
  </filter>
  <filter id="p" x="-.1567" y="-.13514" width="1.3134" height="1.2703"/>
  <filter id="q" x="-.19342" y="-.14911" width="1.3868" height="1.2982"/>
  <linearGradient id="b">
   <stop stop-color="#7ed249" offset="0"/>
   <stop stop-color="#286325" offset="1"/>
  </linearGradient>
  <linearGradient id="c">
   <stop stop-color="#9a5723" offset="0"/>
   <stop stop-color="#db9762" offset="1"/>
  </linearGradient>
  <linearGradient id="o" y1=".49885" y2=".9977">
   <stop stop-color="#a20000" offset="0"/>
   <stop stop-color="#d40000" offset="1"/>
  </linearGradient>
  <linearGradient id="j" x1="-1.3481" x2=".82407" y1=".2987" y2=".49876" xlink:href="#b"/>
  <linearGradient id="g" x1="-.36275" x2=".72146" y1=".04341" y2="1" xlink:href="#b"/>
  <linearGradient id="f" x1="-.2915" y1=".04051" y2=".71113" xlink:href="#b"/>
  <linearGradient id="l" y1=".09632" y2=".64428" xlink:href="#c"/>
  <linearGradient id="m" x1=".07311" x2=".99941" y1=".43128" y2="1" xlink:href="#c"/>
  <linearGradient id="h" x1=".78659" x2=".62289" y1=".45696" y2="-.78033" xlink:href="#c"/>
  <linearGradient id="n" x1=".95846" x2=".14481" y1="-.28009" y2="1.7788" xlink:href="#b"/>
  <linearGradient id="a" x2="0" y2="1" xlink:href="#b"/>
  <linearGradient id="r" x1=".27332" x2="1.0597" y1=".18586" y2=".82438" xlink:href="#b"/>
  <linearGradient id="d" x1=".72668" x2="-.05967" y1=".18586" y2=".82438" xlink:href="#b"/>
  <radialGradient id="k" cx="16.589" cy="8.88" r="16" gradientTransform="matrix(1.8855 .41055 -.13845 .63579 -21.638 -2.8461)" gradientUnits="userSpaceOnUse" xlink:href="#c"/>
 </defs>
 <path d="m16.823 24.558h5s2 0 2-1-2-6 0-7 4 0 4 2 1 6 1 8-2.764 3-5 3c-3 0-8 1-8 1l1-6z" fill="url(#f)"/>
 <path d="m16.823 26.558h-5s-2 0-2-1 2-5 0-6-4 0-4 2-1 5-1 7 2.7639 3 5 3c3 0 8 1 8 1l-1-6z" fill="url(#g)"/>
 <path d="m32.823 13c0 2.2091-11 1-17 1s-15 1.2091-15-1c0-0.6881-0.76342-2.1673 0-3 1-2 6.7377-5 15-5 7.1022 0 17 3 17 6-0.3722 0.1489-0.1311 1.4524 0 2z" fill="url(#h)" fill-rule="evenodd"/>
 <path d="m12.897 38.726c1.0999 0.6416 0.5028-28.249 0.9263-29.168 0.8364-1.8167 4.4979 0.03163 5 4 0.4817 3.8073 2.4786 24.914 1.8421 25.168-0.9722 1.2521-5.8294 2.2688-7.7684 0z" fill="url(#j)"/>
 <path d="m32.823 13c0 2.2091-11 2-17 2s-15 0.2091-15-2 3-6 15-6c10 0 17 3.7909 17 6z" fill="url(#k)" fill-rule="evenodd"/>
 <path d="m11.823 10s0-6 2-8 5 1 5 3 1 6 1 6-1.7474 2.9158-8-1z" fill="url(#l)"/>
 <path d="m32.763 13.357c0 2.2091-10.94 2.2977-16.94 2.2977s-15-0.4459-15-2.655c0-0.6881-0.82297-1.8101-0.05955-2.6427 0.28545 2.0718 6.7973 2.6427 15.06 2.6427 7.1022 0 15.536 0.6796 17-2 0 0 0.4641 0.345-0.0596 2.3573z" fill="url(#m)" fill-rule="evenodd"/>
 <path d="m32.823,10.9954c-.1343.2457-.1803.3376-.4254.5299l-.6996,2.1576-1-1.3125c-.324.0989-.6541.2079-1.0313.2812l-1.0312,2.1875-1.4063-1.9062c-.3921.0293-.7712.0759-1.1875.0937l-1.5937,2.125c-.3824-.5668-.8704-1.5434-1.3125-2.0625-.5026.0001-1.0168-.0258-1.5313-.0312-.04.0445-.0847.0728-.125.125-.4377.5544-.6797,1.533-1.0625,2.125l-1.625-2.2813c-.5463-.0082-1.0844-.0261-1.625-.0312l-2.1562,2.375-1.5-2.4063c-.3461-.0052-.694.0078-1.0313,0-.7432.6725-1.4911,1.6409-2.25,2.2188-.26198-.2724-.51175-1.0826-.74998-1.375-.38796-.5055-.61956-.8461-.75-1.0313-.40928-.0274-.83389-.0284-1.21875-.0625h-.03125c-.70591.6164-1.41104,1.4174-2.09375,1.9688-.66196-.6913-1.21578-1.7238-1.78125-2.5625-.41824-.1004-.7919-.1907-1.125-.3125l-1.59375,1.4687c.07957.2224.26927.4095.53125.5938l1.4375-1.4688c.43296.9518 1.09412,1.7305 1.78125,2.5 .44417.0803.88288.1856 1.375.25 .01218-.0175-.0037.0033.03125-.0312 .06979-.0691.15975-.1459.28125-.25 .54339-.4854 1.22796-1.3795 1.8125-1.8125 .41022.6308.80502,1.6702 1.28125,2.25 .05878.0651.12637.1028.1875.1562 .37713.0234.74488.0756 1.12498.0938 .7667-.6545 1.5076-1.656 2.25-2.25l1.5,2.3125c.4188.0046.8533.031 1.25.0312l2.375-2.3125 1.5313,2.2813c.4823-.0067.8795.0113 1.375,0 .4451-.7778.9474-1.7961 1.375-2.4375 .3804.8045.8653,1.571 1.4062,2.3125h.0313l1.2187-.0625 1.6563-2.1875 1.4062,1.9062c.3681-.0453.7571-.0708 1.0938-.125l1.0937-2.0937 1.2813,1.5c.4057-.1569.7044-.3313.9062-.5313l.4688-1.4375c.1811-1.2059-.125-1.4687-.125-1.4687z" fill="url(#n)"/>
 <path d="m12.366,6.75596-.2305.15182c-.1403.88045-.21,1.19278-.25,1.83761l.1562,1.37501c.3817.2331.7459.4414 1.0938.625l.5937-1.46876 .3125,1.90626c.4007.1795.7738.3527 1.125.4687l.8125-2.24996 .6563,2.59376c.424.0551.7974.0614 1.125.0312l.4687-2.93746 1.4688,1.99996 .0312.0313c.06-.0721.0938-.125.0938-.125s-.2143-.9554-.4375-2.03126l-1.0625-1.40625-.875.21875-.3438,2.0625-.5625-2.25-.9375-.0625-.7812,2.125-.375-2.28125-.9688-.09375-.5937,1.4375-.2188-1.875-.3007-.08318z" fill="url(#o)"/>
 <path d="m12.0335,17.9895 1.7684,2.3579c.89-.1572.7212-.7515.5053-1.3053l-2.2737-1.0526z" fill="url(#a)"/>
 <path d="m8.7935 19.43c-1.977 0.8353-2.0854 2.086-2.7391 3.2154-0.41813-0.2986 0.57065-3.8201 2.7391-3.2154z" fill="#fff" fill-opacity=".6964" filter="url(#p)"/>
 <path d="m5.38086,20.4316 1.76843,2.3579c.89001-.1572.72118-.7515.50526-1.3053l-2.27369-1.0526z" fill="url(#a)"/>
 <path d="m3.94929,25.9053 1.76842,2.3578c.89001-.1571.72118-.7514.50526-1.3052l-2.27368-1.0526z" fill="url(#a)"/>
 <path d="m7.65455,29.2737 1.76842,2.3579c.89003-.1571.72123-.7514.50526-1.3053l-2.27368-1.0526z" fill="url(#a)"/>
 <path d="m12.7072,24.3053 1.7684,2.3579c.89-.1572.7212-.7515.5053-1.3053l-2.2737-1.0526z" fill="url(#a)"/>
 <path d="m12.7914,33.3158 1.7684,2.3579c.89-.1572.7212-.7514.5053-1.3053l-2.2737-1.0526z" fill="url(#a)"/>
 <path d="m28.5425,16.4737-1.7684,2.3579c-.89-.1572-.7212-.7514-.5053-1.3053l2.2737-1.0526z" fill="url(#a)"/>
 <path d="m28.2899,21.6947-1.7684,2.3579c-.89-.1571-.7212-.7514-.5053-1.3052l2.2737-1.0527z" fill="url(#a)"/>
 <path d="m30.3952,24.7263-1.7685,2.3579c-.89-.1571-.7211-.7514-.5052-1.3053l2.2737-1.0526z" fill="url(#a)"/>
 <path d="m20.4583,30.1158-1.7684,2.3579c-.89-.1571-.7212-.7514-.5053-1.3053l2.2737-1.0526z" fill="url(#a)"/>
 <path d="m20.0373,20.6842-1.7685,2.3579c-.89-.1571-.7211-.7514-.5052-1.3053l2.2737-1.0526z" fill="url(#a)"/>
 <path d="m20.2057,16.2211-1.7684,2.3578c-.8901-.1571-.7212-.7514-.5053-1.3052l2.2737-1.0526z" fill="url(#a)"/>
 <path d="m22.2511,22.7628-.3881,2.9217c-.853.2986-.9966-.3023-1.0794-.8909l1.4675-2.0308z" fill="url(#r)"/>
 <path d="m10.6783,24.3628 .3881,2.9217c.8531.2986.9967-.3023 1.0795-.8909l-1.4676-2.0308z" fill="url(#d)"/>
 <path d="m12.7236,5.61491c.7411-1.28641.9291-2.4148 2.6795-3.98957-.9037,0-2.525.83364-2.6795,3.98957z" fill="#fff" fill-opacity=".7813" filter="url(#e)"/>
 <path d="m2.0648 11.808c1.3724-1.3667 3.0306-2.6977 6.9073-3.7514 0 0-6.55 0.7741-6.9073 3.7514z" fill="#fff" fill-opacity=".7813" filter="url(#i)"/>
 <path d="m25.407 16.512c-1.9536 0.5728-1.9831 1.787-2.0841 2.9773 0 0-1.1909-2.9773 2.0841-2.9773z" fill="#fff" fill-opacity=".6964" filter="url(#q)"/>
</svg>
